<mxfile>
    <diagram id="Mq_vvSbOs9Gga0j-x86-" name="Page-1">
        <mxGraphModel dx="-863" dy="-360" grid="1" gridSize="10" guides="1" tooltips="1" connect="1" arrows="1" fold="1" page="1" pageScale="1" pageWidth="850" pageHeight="1100" math="0" shadow="0">
            <root>
                <mxCell id="0"/>
                <mxCell id="1" parent="0"/>
                <mxCell id="2" value="View" style="shape=umlFrame;whiteSpace=wrap;html=1;verticalAlign=top;" vertex="1" parent="1">
                    <mxGeometry x="2480" y="1290" width="250" height="420" as="geometry"/>
                </mxCell>
                <mxCell id="3" value="Model" style="shape=umlFrame;whiteSpace=wrap;html=1;verticalAlign=top;" vertex="1" parent="1">
                    <mxGeometry x="1730" y="1290" width="300" height="480" as="geometry"/>
                </mxCell>
                <mxCell id="4" value="Controller" style="shape=umlFrame;whiteSpace=wrap;html=1;verticalAlign=top;" vertex="1" parent="1">
                    <mxGeometry x="2150" y="1290" width="230" height="290" as="geometry"/>
                </mxCell>
                <mxCell id="5" value="Orang Tua" style="shape=module;align=left;spacingLeft=20;align=center;verticalAlign=top;flipV=0;flipH=1;" vertex="1" parent="1">
                    <mxGeometry x="1810" y="1340" width="140" height="50" as="geometry"/>
                </mxCell>
                <mxCell id="6" value="Siswa" style="shape=module;align=left;spacingLeft=20;align=center;verticalAlign=top;flipH=1;" vertex="1" parent="1">
                    <mxGeometry x="1810" y="1420" width="140" height="50" as="geometry"/>
                </mxCell>
                <mxCell id="7" value="Guru Wali" style="shape=module;align=left;spacingLeft=20;align=center;verticalAlign=top;flipH=1;" vertex="1" parent="1">
                    <mxGeometry x="1810" y="1500" width="140" height="50" as="geometry"/>
                </mxCell>
                <mxCell id="8" value="Transkrip Nilai" style="shape=module;align=left;spacingLeft=20;align=center;verticalAlign=top;" vertex="1" parent="1">
                    <mxGeometry x="2550" y="1320" width="120" height="50" as="geometry"/>
                </mxCell>
                <mxCell id="9" value="Testimoni" style="shape=module;align=left;spacingLeft=20;align=center;verticalAlign=top;" vertex="1" parent="1">
                    <mxGeometry x="2550" y="1380" width="120" height="50" as="geometry"/>
                </mxCell>
                <mxCell id="10" value="Manajemen Nilai&#10;Siswa" style="shape=module;align=left;spacingLeft=20;align=center;verticalAlign=top;" vertex="1" parent="1">
                    <mxGeometry x="2550" y="1440" width="120" height="50" as="geometry"/>
                </mxCell>
                <mxCell id="11" value="Manajemen&#10;E-Raport SMPN &#10;1 Cungkup" style="shape=module;align=left;spacingLeft=20;align=center;verticalAlign=top;" vertex="1" parent="1">
                    <mxGeometry x="2200" y="1385" width="100" height="50" as="geometry"/>
                </mxCell>
                <mxCell id="12" value="" style="endArrow=none;html=1;fontSize=35;strokeWidth=1;exitX=0;exitY=0;exitDx=0;exitDy=15;exitPerimeter=0;entryX=0;entryY=0;entryDx=0;entryDy=15;entryPerimeter=0;" edge="1" parent="1" source="5" target="11">
                    <mxGeometry width="50" height="50" relative="1" as="geometry">
                        <mxPoint x="2070" y="1420" as="sourcePoint"/>
                        <mxPoint x="2120" y="1370" as="targetPoint"/>
                        <Array as="points">
                            <mxPoint x="2100" y="1355"/>
                            <mxPoint x="2100" y="1400"/>
                        </Array>
                    </mxGeometry>
                </mxCell>
                <mxCell id="13" value="" style="endArrow=none;html=1;fontSize=35;strokeWidth=1;exitX=0;exitY=0;exitDx=0;exitDy=15;exitPerimeter=0;entryX=0;entryY=0;entryDx=0;entryDy=15;entryPerimeter=0;" edge="1" parent="1" source="6" target="11">
                    <mxGeometry width="50" height="50" relative="1" as="geometry">
                        <mxPoint x="1960" y="1365" as="sourcePoint"/>
                        <mxPoint x="2210" y="1410" as="targetPoint"/>
                        <Array as="points">
                            <mxPoint x="2100" y="1435"/>
                            <mxPoint x="2100" y="1400"/>
                        </Array>
                    </mxGeometry>
                </mxCell>
                <mxCell id="14" value="" style="endArrow=none;html=1;fontSize=35;strokeWidth=1;exitX=0;exitY=0;exitDx=0;exitDy=15;exitPerimeter=0;entryX=0;entryY=0;entryDx=0;entryDy=15;entryPerimeter=0;" edge="1" parent="1" source="7">
                    <mxGeometry width="50" height="50" relative="1" as="geometry">
                        <mxPoint x="1950" y="1435.0000000000002" as="sourcePoint"/>
                        <mxPoint x="2200" y="1400" as="targetPoint"/>
                        <Array as="points">
                            <mxPoint x="2100" y="1515"/>
                            <mxPoint x="2100" y="1435"/>
                            <mxPoint x="2100" y="1400"/>
                        </Array>
                    </mxGeometry>
                </mxCell>
                <mxCell id="15" value="Manajemen Nilai&#10;Siswa" style="shape=module;align=left;spacingLeft=20;align=center;verticalAlign=top;" vertex="1" parent="1">
                    <mxGeometry x="2550" y="1500" width="120" height="50" as="geometry"/>
                </mxCell>
                <mxCell id="16" value="component" style="text;html=1;align=center;verticalAlign=middle;resizable=0;points=[];autosize=1;strokeColor=none;fontSize=35;" vertex="1" parent="1">
                    <mxGeometry x="1745" y="1130" width="190" height="50" as="geometry"/>
                </mxCell>
                <mxCell id="18" value="Operator" style="shape=module;align=left;spacingLeft=20;align=center;verticalAlign=top;flipH=1;" vertex="1" parent="1">
                    <mxGeometry x="1810" y="1654" width="140" height="50" as="geometry"/>
                </mxCell>
                <mxCell id="19" value="Guru Mapel" style="shape=module;align=left;spacingLeft=20;align=center;verticalAlign=top;flipV=0;flipH=1;" vertex="1" parent="1">
                    <mxGeometry x="1810" y="1574" width="140" height="50" as="geometry"/>
                </mxCell>
                <mxCell id="21" value="" style="endArrow=none;html=1;fontSize=35;strokeWidth=1;exitX=1;exitY=0.25;exitDx=0;exitDy=0;entryX=0;entryY=0;entryDx=0;entryDy=15;entryPerimeter=0;" edge="1" parent="1" source="19">
                    <mxGeometry width="50" height="50" relative="1" as="geometry">
                        <mxPoint x="1950" y="1435.0000000000002" as="sourcePoint"/>
                        <mxPoint x="2200" y="1400" as="targetPoint"/>
                        <Array as="points">
                            <mxPoint x="2100" y="1586"/>
                            <mxPoint x="2100" y="1435"/>
                            <mxPoint x="2100" y="1400"/>
                        </Array>
                    </mxGeometry>
                </mxCell>
                <mxCell id="23" value="" style="endArrow=none;html=1;fontSize=35;strokeWidth=1;exitX=1;exitY=0.25;exitDx=0;exitDy=0;entryX=0;entryY=0;entryDx=0;entryDy=15;entryPerimeter=0;" edge="1" parent="1" source="18">
                    <mxGeometry width="50" height="50" relative="1" as="geometry">
                        <mxPoint x="1950" y="1586.4999999999998" as="sourcePoint"/>
                        <mxPoint x="2200" y="1400" as="targetPoint"/>
                        <Array as="points">
                            <mxPoint x="2100" y="1667"/>
                            <mxPoint x="2100" y="1435"/>
                            <mxPoint x="2100" y="1400"/>
                        </Array>
                    </mxGeometry>
                </mxCell>
                <mxCell id="27" value="Manajemen Data &#10;Guru" style="shape=module;align=left;spacingLeft=20;align=center;verticalAlign=top;" vertex="1" parent="1">
                    <mxGeometry x="2550" y="1624" width="120" height="50" as="geometry"/>
                </mxCell>
                <mxCell id="28" value="Manajemen Data&#10;Siswa" style="shape=module;align=left;spacingLeft=20;align=center;verticalAlign=top;" vertex="1" parent="1">
                    <mxGeometry x="2550" y="1564" width="120" height="50" as="geometry"/>
                </mxCell>
                <mxCell id="31" value="" style="endArrow=none;html=1;fontSize=35;strokeWidth=1;exitX=1;exitY=0.25;exitDx=0;exitDy=0;entryX=0;entryY=0;entryDx=0;entryDy=15;entryPerimeter=0;" edge="1" parent="1" source="11" target="8">
                    <mxGeometry width="50" height="50" relative="1" as="geometry">
                        <mxPoint x="1950" y="1586.4999999999998" as="sourcePoint"/>
                        <mxPoint x="2200" y="1400" as="targetPoint"/>
                        <Array as="points">
                            <mxPoint x="2440" y="1398"/>
                            <mxPoint x="2440" y="1384"/>
                            <mxPoint x="2440" y="1335"/>
                        </Array>
                    </mxGeometry>
                </mxCell>
                <mxCell id="32" value="" style="endArrow=none;html=1;fontSize=35;strokeWidth=1;exitX=1;exitY=0.25;exitDx=0;exitDy=0;entryX=0;entryY=0;entryDx=0;entryDy=15;entryPerimeter=0;" edge="1" parent="1" source="11" target="9">
                    <mxGeometry width="50" height="50" relative="1" as="geometry">
                        <mxPoint x="1950" y="1586.4999999999998" as="sourcePoint"/>
                        <mxPoint x="2200" y="1400" as="targetPoint"/>
                        <Array as="points">
                            <mxPoint x="2440" y="1398"/>
                            <mxPoint x="2440" y="1394"/>
                        </Array>
                    </mxGeometry>
                </mxCell>
                <mxCell id="33" value="" style="endArrow=none;html=1;fontSize=35;strokeWidth=1;exitX=1;exitY=0.25;exitDx=0;exitDy=0;entryX=0;entryY=0;entryDx=0;entryDy=15;entryPerimeter=0;" edge="1" parent="1" source="11" target="10">
                    <mxGeometry width="50" height="50" relative="1" as="geometry">
                        <mxPoint x="1950" y="1586.4999999999998" as="sourcePoint"/>
                        <mxPoint x="2200" y="1400" as="targetPoint"/>
                        <Array as="points">
                            <mxPoint x="2440" y="1398"/>
                            <mxPoint x="2440" y="1455"/>
                        </Array>
                    </mxGeometry>
                </mxCell>
                <mxCell id="34" value="" style="endArrow=none;html=1;fontSize=35;strokeWidth=1;exitX=1;exitY=0.25;exitDx=0;exitDy=0;entryX=0;entryY=0;entryDx=0;entryDy=15;entryPerimeter=0;" edge="1" parent="1" source="11" target="15">
                    <mxGeometry width="50" height="50" relative="1" as="geometry">
                        <mxPoint x="1950" y="1586.4999999999998" as="sourcePoint"/>
                        <mxPoint x="2200" y="1400" as="targetPoint"/>
                        <Array as="points">
                            <mxPoint x="2440" y="1398"/>
                            <mxPoint x="2440" y="1515"/>
                        </Array>
                    </mxGeometry>
                </mxCell>
                <mxCell id="35" value="" style="endArrow=none;html=1;fontSize=35;strokeWidth=1;exitX=1;exitY=0.25;exitDx=0;exitDy=0;entryX=0;entryY=0;entryDx=0;entryDy=15;entryPerimeter=0;" edge="1" parent="1" source="11" target="28">
                    <mxGeometry width="50" height="50" relative="1" as="geometry">
                        <mxPoint x="1950" y="1586.4999999999998" as="sourcePoint"/>
                        <mxPoint x="2200" y="1400" as="targetPoint"/>
                        <Array as="points">
                            <mxPoint x="2440" y="1398"/>
                            <mxPoint x="2440" y="1579"/>
                        </Array>
                    </mxGeometry>
                </mxCell>
                <mxCell id="36" value="" style="endArrow=none;html=1;fontSize=35;strokeWidth=1;exitX=1;exitY=0.25;exitDx=0;exitDy=0;entryX=0;entryY=0;entryDx=0;entryDy=15;entryPerimeter=0;" edge="1" parent="1" source="11" target="27">
                    <mxGeometry width="50" height="50" relative="1" as="geometry">
                        <mxPoint x="1950" y="1586.4999999999998" as="sourcePoint"/>
                        <mxPoint x="2200" y="1400" as="targetPoint"/>
                        <Array as="points">
                            <mxPoint x="2440" y="1398"/>
                            <mxPoint x="2440" y="1639"/>
                        </Array>
                    </mxGeometry>
                </mxCell>
            </root>
        </mxGraphModel>
    </diagram>
</mxfile>